# xmcd
#
# Track frame offsets:
#	150
#	17727
#	36506
#	53742
#	71978
#	87692
#	102389
#	121867
#	135421
#	152767
#	169244
#	184091
#	201130
#	216845
#
# Disc length: 3116 seconds
#
# Revision: 0
# Processed by: cddbd v1.5.2PL0 Copyright (c) Steve Scherf et al.
# Submitted via: EasyCDDAExtractor 9.1.3.1
#
DISCID=cd0c2a0e
DTITLE=Xristina Farmaki - Simera
DYEAR=1999
DGENRE=Greek
TTITLE0=panikos
TTITLE1=mono esy
TTITLE2=allo limani
TTITLE3=wres nikotinis
TTITLE4=katafygio
TTITLE5=kollima gero
TTITLE6=basanizomai
TTITLE7=mia s`agapaw , mia se misw
TTITLE8=pes to mou ksana
TTITLE9=eftaiksa
TTITLE10=den se afora
TTITLE11=krisi
TTITLE12=pare oti thes
TTITLE13=mou eleipses
EXTD=
EXTT0=
EXTT1=
EXTT2=
EXTT3=
EXTT4=
EXTT5=
EXTT6=
EXTT7=
EXTT8=
EXTT9=
EXTT10=
EXTT11=
EXTT12=
EXTT13=
PLAYORDER=
